<svg width="32" height="32" viewBox="0 0 32 32" xmlns="http://www.w3.org/2000/svg">
  <!-- Base blue circle for the ocean -->
  <circle cx="16" cy="16" r="15" fill="#2185d0" />
  
  <!-- Land masses -->
  <path fill="#3eaf3a" d="M8,6 C10,5 14,8 16,7 C18,6 21,5 22,7 C23,9 20,13 22,16 C24,19 22,23 19,24 C16,25 13,23 11,24 C9,25 6,23 5,21 C4,19 5,16 4,14 C3,12 6,7 8,6 Z" />
  
  <!-- North America -->
  <path fill="#3eaf3a" d="M10,10 C8,12 6,13 7,16 C8,19 12,20 12,22 C12,24 10,25 8,24 C6,23 4,19 3,17 C2,15 3,12 5,9 C7,6 12,8 10,10 Z" />
  
  <!-- Australia -->
  <path fill="#3eaf3a" d="M25,20 C27,19 28,22 26,24 C24,26 22,24 22,22 C22,20 23,21 25,20 Z" />

  <!-- Subtle atmospheric glow -->
  <circle cx="16" cy="16" r="16" fill="url(#atmosphere)" />
  
  <defs>
    <radialGradient id="atmosphere" cx="16" cy="16" r="16" gradientUnits="userSpaceOnUse">
      <stop offset="75%" stop-color="rgba(255,255,255,0)" />
      <stop offset="100%" stop-color="rgba(255,255,255,0.3)" />
    </radialGradient>
  </defs>
</svg>
